<svg width="24" height="24" viewBox="0 0 24 24" fill="none" xmlns="http://www.w3.org/2000/svg">
<path fill-rule="evenodd" clip-rule="evenodd" d="M5.67452 4.01961C3.90169 4.82998 2.60293 6.75746 2.60293 9.05591C2.60293 11.4041 3.56385 13.2141 4.94137 14.7652C6.07672 16.0436 7.45108 17.1032 8.79144 18.1365C9.10979 18.382 9.42622 18.6259 9.73708 18.871C10.2992 19.3141 10.8006 19.703 11.284 19.9855C11.7676 20.268 12.1568 20.3971 12.4877 20.3971C12.8185 20.3971 13.2078 20.268 13.6913 19.9855C14.1747 19.703 14.6761 19.3141 15.2382 18.871C15.5491 18.6259 15.8655 18.382 16.1839 18.1365C17.5242 17.1032 18.8986 16.0436 20.0339 14.7652C21.4115 13.2141 22.3724 11.4041 22.3724 9.05591C22.3724 6.75746 21.0736 4.82998 19.3008 4.01961C17.5785 3.23234 15.2643 3.44083 13.0651 5.72571C12.914 5.88268 12.7055 5.97138 12.4877 5.97138C12.2698 5.97138 12.0613 5.88268 11.9102 5.72571C9.71102 3.44083 7.39683 3.23234 5.67452 4.01961Z" fill="#000A07"/>
</svg>
