<svg width="24" height="24" viewBox="0 0 24 24" fill="none" xmlns="http://www.w3.org/2000/svg">
<path d="M5.46967 12.5303C5.17678 12.2374 5.17678 11.7626 5.46967 11.4697L7.46967 9.46967C7.76257 9.17678 8.23744 9.17678 8.53033 9.46967C8.82323 9.76256 8.82323 10.2374 8.53033 10.5303L7.81066 11.25L15 11.25C15.4142 11.25 15.75 11.5858 15.75 12C15.75 12.4142 15.4142 12.75 15 12.75L7.81066 12.75L8.53033 13.4697C8.82323 13.7626 8.82323 14.2374 8.53033 14.5303C8.23744 14.8232 7.76257 14.8232 7.46967 14.5303L5.46967 12.5303Z" fill="#000A07"/>
<path fill-rule="evenodd" clip-rule="evenodd" d="M13.9453 1.25H15.0551C16.4227 1.24998 17.525 1.24996 18.392 1.36652C19.2921 1.48754 20.05 1.74643 20.6519 2.34835C21.2538 2.95027 21.5127 3.70814 21.6337 4.60825C21.7503 5.47522 21.7502 6.57754 21.7502 7.94513V16.0549C21.7502 17.4225 21.7503 18.5248 21.6337 19.3918C21.5127 20.2919 21.2538 21.0497 20.6519 21.6517C20.05 22.2536 19.2921 22.5125 18.392 22.6335C17.525 22.75 16.4227 22.75 15.0551 22.75H13.9453C12.5778 22.75 11.4754 22.75 10.6085 22.6335C9.70836 22.5125 8.95048 22.2536 8.34857 21.6517C7.94963 21.2527 7.70068 20.7844 7.54305 20.2498C6.59168 20.2486 5.79906 20.2381 5.15689 20.1518C4.39294 20.0491 3.7306 19.8268 3.20191 19.2981C2.67321 18.7694 2.45093 18.1071 2.34822 17.3431C2.24996 16.6123 2.24998 15.6865 2.25 14.5537V9.44631C2.24998 8.31349 2.24996 7.38774 2.34822 6.65689C2.45093 5.89294 2.67321 5.2306 3.20191 4.7019C3.7306 4.17321 4.39294 3.95093 5.15689 3.84822C5.79906 3.76189 6.59168 3.75142 7.54305 3.75017C7.70068 3.21562 7.94963 2.74728 8.34857 2.34835C8.95048 1.74643 9.70836 1.48754 10.6085 1.36652C11.4754 1.24996 12.5778 1.24998 13.9453 1.25Z" fill="#000A07"/>
</svg>
