<svg xmlns="http://www.w3.org/2000/svg" width="24" height="24" viewBox="0 0 24 24" fill="none">
  <path fill-rule="evenodd" clip-rule="evenodd" d="M14.5556 4.89609C14.567 4.90625 14.5784 4.91643 14.5899 4.92664L18.1581 8.09832C18.8238 8.69009 19.3758 9.18066 19.7547 9.62599C20.153 10.094 20.4366 10.5979 20.4366 11.2215C20.4366 11.8451 20.153 12.349 19.7547 12.817C19.3758 13.2623 18.8238 13.7529 18.1581 14.3447L14.5899 17.5164C14.5784 17.5266 14.567 17.5368 14.5555 17.5469C14.2671 17.8034 13.998 18.0427 13.7654 18.1962C13.5371 18.347 13.1218 18.566 12.6567 18.3571C12.1915 18.1482 12.0793 17.6924 12.0403 17.4215C12.0006 17.1457 12.0006 16.7855 12.0007 16.3996C12.0007 16.3843 12.0007 16.369 12.0007 16.3536V14.9593C10.7103 15.0482 9.40279 15.3909 8.25905 15.9482C6.91409 16.6035 5.83997 17.5328 5.25704 18.6431C5.11445 18.9147 4.80495 19.054 4.50713 18.9806C4.2093 18.9071 4 18.64 4 18.3332C4 14.1364 5.22799 11.4038 6.98381 9.72381C8.51425 8.25947 10.3795 7.65859 12.0007 7.53284V6.08937C12.0006 5.70345 12.0006 5.34325 12.0403 5.06746C12.0793 4.79657 12.1915 4.34077 12.6567 4.13186C13.1218 3.92295 13.5371 4.14196 13.7654 4.29273C13.998 4.44628 14.2671 4.68557 14.5555 4.94205L14.5556 4.89609Z" fill="#000A07"/>
</svg>