<svg xmlns="http://www.w3.org/2000/svg" width="24" height="24" viewBox="0 0 24 24" fill="none">
  <path fill-rule="evenodd" clip-rule="evenodd" d="M17.2455 5.16488C16.4098 5.31354 15.2831 5.68758 13.7019 6.21465L10.1224 7.40781C8.85099 7.83163 7.93007 8.13906 7.27962 8.41571C6.59957 8.70495 6.35765 8.90656 6.27908 9.04171C6.03708 9.45799 6.03708 9.97211 6.27908 10.3884C6.35765 10.5235 6.59957 10.7251 7.27961 11.0144C7.93007 11.291 8.85099 11.5985 10.1224 12.0223L13.7019 13.2154C15.2831 13.7425 16.4098 14.1165 17.2455 14.2652C18.0999 14.4169 18.5843 14.2859 18.9209 14.0884C19.2575 13.8909 19.5195 13.4772 19.6712 12.6228C19.8199 11.7871 19.8199 10.6604 19.8199 9.07916C19.8199 7.49795 19.8199 6.37125 19.6712 5.53557C19.5195 4.68117 19.2575 4.26744 18.9209 4.06997C18.5843 3.8725 18.0999 3.74145 17.2455 3.89317ZM13.4481 4.78535C15.1171 4.22825 16.1544 3.88075 16.8955 3.75099C17.6365 3.62124 18.0843 3.71516 18.4459 3.93003C18.8075 4.14491 19.1195 4.59272 19.2493 5.33372C19.379 6.07472 19.3799 7.11203 19.3799 8.78103V9.37729C19.3799 11.0463 19.379 12.0836 19.2493 12.8246C19.1195 13.5656 18.8075 14.0134 18.4459 14.2283C18.0843 14.4432 17.6365 14.5371 16.8955 14.4073C16.1544 14.2776 15.1171 13.9301 13.4481 13.373L9.86862 12.1798C8.54653 11.7404 7.71161 11.4574 7.12039 11.2057C6.49977 10.9408 6.20859 10.6496 6.07908 10.4384C5.94957 10.2271 5.94957 10.0029 6.07908 9.79171C6.20859 9.58047 6.49977 9.28929 7.12039 9.02437C7.71161 8.77269 8.54653 8.48969 9.86862 8.05025L13.4481 4.78535Z" fill="#000A07"/>
</svg>