<svg width="193" height="50" viewBox="0 0 193 50" fill="none" xmlns="http://www.w3.org/2000/svg">
<g clip-path="url(#clip0_41_675)">
<circle cx="22.5" cy="23.5" r="22.5" fill="#FCFFFE" fill-opacity="0.4"/>
<rect x="17" y="19" width="30" height="30" rx="15" fill="#FCFFFE"/>
<path d="M53.92 40.75V37.456C54.433 37.456 54.8965 37.3345 55.3105 37.0915C55.7245 36.8575 56.053 36.5335 56.296 36.1195C56.539 35.7145 56.6605 35.26 56.6605 34.756V20.5H59.9545V34.756C59.9545 35.854 59.6845 36.8575 59.1445 37.7665C58.6135 38.6755 57.889 39.4 56.971 39.94C56.062 40.48 55.045 40.75 53.92 40.75ZM58.3345 18.7585C57.8485 18.7585 57.439 18.601 57.106 18.286C56.773 17.962 56.6065 17.557 56.6065 17.071C56.6065 16.594 56.773 16.1935 57.106 15.8695C57.439 15.5455 57.844 15.3835 58.321 15.3835C58.798 15.3835 59.1985 15.5455 59.5225 15.8695C59.8555 16.1935 60.022 16.594 60.022 17.071C60.022 17.557 59.86 17.962 59.536 18.286C59.212 18.601 58.8115 18.7585 58.3345 18.7585ZM68.809 34.351C67.567 34.351 66.433 34.0315 65.407 33.3925C64.39 32.7535 63.5755 31.8985 62.9635 30.8275C62.3605 29.7475 62.059 28.555 62.059 27.25C62.059 26.26 62.2345 25.3375 62.5855 24.4825C62.9365 23.6185 63.418 22.8625 64.03 22.2145C64.651 21.5575 65.371 21.0445 66.19 20.6755C67.009 20.3065 67.882 20.122 68.809 20.122C70.051 20.122 71.1805 20.4415 72.1975 21.0805C73.2235 21.7195 74.038 22.579 74.641 23.659C75.253 24.739 75.559 25.936 75.559 27.25C75.559 28.231 75.3835 29.149 75.0325 30.004C74.6815 30.859 74.1955 31.615 73.5745 32.272C72.9625 32.92 72.247 33.4285 71.428 33.7975C70.618 34.1665 69.745 34.351 68.809 34.351ZM68.809 31.057C69.466 31.057 70.0555 30.8815 70.5775 30.5305C71.0995 30.1795 71.509 29.716 71.806 29.14C72.112 28.564 72.265 27.934 72.265 27.25C72.265 26.548 72.1075 25.909 71.7925 25.333C71.4865 24.748 71.068 24.2845 70.537 23.9425C70.015 23.5915 69.439 23.416 68.809 23.416C68.161 23.416 67.576 23.5915 67.054 23.9425C66.532 24.2935 66.118 24.7615 65.812 25.3465C65.506 25.9315 65.353 26.566 65.353 27.25C65.353 27.961 65.5105 28.6045 65.8255 29.1805C66.1405 29.7565 66.559 30.2155 67.081 30.5575C67.612 30.8905 68.188 31.057 68.809 31.057ZM76.831 29.005V20.5H80.125V28.141C80.125 28.672 80.2555 29.158 80.5165 29.599C80.7775 30.031 81.124 30.3775 81.556 30.6385C81.997 30.8905 82.4785 31.0165 83.0005 31.0165C83.5405 31.0165 84.0265 30.8905 84.4585 30.6385C84.8905 30.3775 85.237 30.031 85.498 29.599C85.759 29.158 85.8895 28.672 85.8895 28.141V20.5H89.1835L89.197 34H85.903L85.8895 32.7715C85.4215 33.2575 84.868 33.6445 84.229 33.9325C83.59 34.2115 82.906 34.351 82.177 34.351C81.196 34.351 80.3005 34.1125 79.4905 33.6355C78.6805 33.1495 78.0325 32.506 77.5465 31.705C77.0695 30.895 76.831 29.995 76.831 29.005ZM91.9128 34L91.8993 20.5H95.1933L95.2068 21.7015C95.6658 21.2155 96.2148 20.833 96.8538 20.554C97.4928 20.266 98.1813 20.122 98.9193 20.122C99.4143 20.122 99.9093 20.194 100.404 20.338L99.1083 23.659C98.7663 23.524 98.4243 23.4565 98.0823 23.4565C97.5513 23.4565 97.0653 23.587 96.6243 23.848C96.1923 24.1 95.8458 24.4465 95.5848 24.8875C95.3328 25.3195 95.2068 25.801 95.2068 26.332V34H91.9128ZM114.338 25.468V34H111.044V26.332C111.044 25.801 110.913 25.3195 110.652 24.8875C110.391 24.4465 110.04 24.1 109.599 23.848C109.167 23.587 108.686 23.4565 108.155 23.4565C107.624 23.4565 107.138 23.587 106.697 23.848C106.265 24.1 105.918 24.4465 105.657 24.8875C105.405 25.3195 105.279 25.801 105.279 26.332V34H101.985L101.972 20.5H105.266L105.279 21.7015C105.738 21.2155 106.287 20.833 106.926 20.554C107.565 20.266 108.254 20.122 108.992 20.122C109.973 20.122 110.868 20.365 111.678 20.851C112.488 21.328 113.132 21.9715 113.609 22.7815C114.095 23.5825 114.338 24.478 114.338 25.468ZM122.704 34.351C121.462 34.351 120.328 34.0315 119.302 33.3925C118.285 32.7535 117.47 31.894 116.858 30.814C116.255 29.734 115.954 28.5415 115.954 27.2365C115.954 26.2555 116.129 25.3375 116.48 24.4825C116.831 23.6185 117.313 22.8625 117.925 22.2145C118.546 21.5575 119.266 21.0445 120.085 20.6755C120.904 20.3065 121.777 20.122 122.704 20.122C123.757 20.122 124.72 20.347 125.593 20.797C126.475 21.238 127.222 21.8455 127.834 22.6195C128.446 23.3935 128.891 24.2755 129.17 25.2655C129.449 26.2555 129.512 27.2905 129.359 28.3705H119.491C119.617 28.8745 119.824 29.329 120.112 29.734C120.4 30.13 120.764 30.4495 121.205 30.6925C121.646 30.9265 122.146 31.048 122.704 31.057C123.28 31.066 123.802 30.931 124.27 30.652C124.747 30.364 125.143 29.977 125.458 29.491L128.819 30.274C128.27 31.471 127.451 32.452 126.362 33.217C125.273 33.973 124.054 34.351 122.704 34.351ZM119.383 25.9H126.025C125.926 25.36 125.714 24.874 125.39 24.442C125.075 24.001 124.684 23.65 124.216 23.389C123.748 23.128 123.244 22.9975 122.704 22.9975C122.164 22.9975 121.664 23.128 121.205 23.389C120.746 23.641 120.355 23.9875 120.031 24.4285C119.716 24.8605 119.5 25.351 119.383 25.9ZM139.973 20.5H143.469L136.085 40.75H132.588L135.032 34L130.172 20.5H133.776L136.679 29.491L139.973 20.5ZM145.372 34V13.75H148.666V34H145.372ZM151.911 20.5H155.205V34H151.911V20.5ZM153.585 18.7585C153.099 18.7585 152.69 18.601 152.357 18.286C152.024 17.962 151.857 17.557 151.857 17.071C151.857 16.594 152.024 16.1935 152.357 15.8695C152.69 15.5455 153.095 15.3835 153.572 15.3835C154.049 15.3835 154.449 15.5455 154.773 15.8695C155.106 16.1935 155.273 16.594 155.273 17.071C155.273 17.557 155.111 17.962 154.787 18.286C154.463 18.601 154.062 18.7585 153.585 18.7585ZM162.222 34.243C161.52 34.198 160.84 34.0585 160.183 33.8245C159.535 33.5815 158.959 33.253 158.455 32.839C157.951 32.425 157.564 31.93 157.294 31.354L160.075 30.166C160.183 30.346 160.359 30.5395 160.602 30.7465C160.845 30.9445 161.133 31.111 161.466 31.246C161.808 31.381 162.181 31.4485 162.586 31.4485C162.928 31.4485 163.252 31.4035 163.558 31.3135C163.873 31.2145 164.125 31.066 164.314 30.868C164.512 30.67 164.611 30.4135 164.611 30.0985C164.611 29.7655 164.494 29.509 164.26 29.329C164.035 29.14 163.747 29.0005 163.396 28.9105C163.054 28.8115 162.721 28.7215 162.397 28.6405C161.542 28.4695 160.746 28.204 160.008 27.844C159.279 27.484 158.689 27.0205 158.239 26.4535C157.798 25.8775 157.578 25.1845 157.578 24.3745C157.578 23.4835 157.812 22.714 158.28 22.066C158.757 21.418 159.373 20.9185 160.129 20.5675C160.894 20.2165 161.718 20.041 162.6 20.041C163.671 20.041 164.652 20.266 165.543 20.716C166.443 21.157 167.154 21.7825 167.676 22.5925L165.07 24.1315C164.944 23.9155 164.769 23.7175 164.544 23.5375C164.319 23.3485 164.062 23.1955 163.774 23.0785C163.486 22.9525 163.185 22.8805 162.87 22.8625C162.465 22.8445 162.096 22.8805 161.763 22.9705C161.43 23.0605 161.16 23.2135 160.953 23.4295C160.755 23.6455 160.656 23.9335 160.656 24.2935C160.656 24.6355 160.791 24.892 161.061 25.063C161.331 25.225 161.655 25.351 162.033 25.441C162.42 25.531 162.789 25.63 163.14 25.738C163.932 25.999 164.674 26.3185 165.367 26.6965C166.069 27.0745 166.632 27.538 167.055 28.087C167.478 28.636 167.68 29.293 167.662 30.058C167.662 30.931 167.401 31.696 166.879 32.353C166.357 33.001 165.682 33.496 164.854 33.838C164.035 34.18 163.158 34.315 162.222 34.243ZM177.209 23.794H174.59V34H171.296V23.794H169.298V20.5H171.296V16.261H174.59V20.5H177.209V23.794ZM179.301 34.208C179.125 34.208 178.976 34.144 178.853 34.016C178.731 33.8933 178.669 33.7413 178.669 33.56C178.669 33.3893 178.731 33.2427 178.853 33.12C178.976 32.992 179.125 32.928 179.301 32.928C179.483 32.928 179.635 32.992 179.757 33.12C179.885 33.2427 179.949 33.3893 179.949 33.56C179.949 33.7413 179.885 33.8933 179.757 34.016C179.635 34.144 179.483 34.208 179.301 34.208ZM181.864 26H182.984V34H181.864V26ZM182.432 24.6C182.251 24.6 182.096 24.5413 181.968 24.424C181.846 24.3013 181.784 24.1493 181.784 23.968C181.784 23.7867 181.846 23.6373 181.968 23.52C182.096 23.3973 182.251 23.336 182.432 23.336C182.608 23.336 182.758 23.3973 182.88 23.52C183.008 23.6373 183.072 23.7867 183.072 23.968C183.072 24.1493 183.011 24.3013 182.888 24.424C182.766 24.5413 182.614 24.6 182.432 24.6ZM188.353 34.208C187.617 34.208 186.945 34.0187 186.337 33.64C185.734 33.2613 185.252 32.7547 184.889 32.12C184.532 31.48 184.353 30.7733 184.353 30C184.353 29.4133 184.457 28.8667 184.665 28.36C184.873 27.848 185.158 27.4 185.521 27.016C185.889 26.6267 186.316 26.3227 186.801 26.104C187.286 25.8853 187.804 25.776 188.353 25.776C189.089 25.776 189.758 25.9653 190.361 26.344C190.969 26.7227 191.452 27.232 191.809 27.872C192.172 28.512 192.353 29.2213 192.353 30C192.353 30.5813 192.249 31.1253 192.041 31.632C191.833 32.1387 191.545 32.5867 191.177 32.976C190.814 33.36 190.39 33.6613 189.905 33.88C189.425 34.0987 188.908 34.208 188.353 34.208ZM188.353 33.088C188.897 33.088 189.385 32.9467 189.817 32.664C190.254 32.376 190.598 31.9973 190.849 31.528C191.105 31.0587 191.233 30.5493 191.233 30C191.233 29.44 191.105 28.9253 190.849 28.456C190.593 27.9813 190.246 27.6027 189.809 27.32C189.377 27.0373 188.892 26.896 188.353 26.896C187.809 26.896 187.318 27.04 186.881 27.328C186.449 27.6107 186.105 27.9867 185.849 28.456C185.598 28.9253 185.473 29.44 185.473 30C185.473 30.576 185.604 31.0987 185.865 31.568C186.126 32.032 186.476 32.4027 186.913 32.68C187.35 32.952 187.83 33.088 188.353 33.088Z" fill="#FCFFFE"/>
</g>
<rect width="193" height="50" stroke="#FCFFFE"/>
<defs>
<clipPath id="clip0_41_675">
<rect width="193" height="50" fill="white"/>
</clipPath>
</defs>
</svg>
